# xmcd CD database file
#
# Track frame offsets:
#	150
#	39631
#	85338
#	144213
#	173857
#	219240
#	247118
#
# Disc length: 3998 seconds
#
# Revision: 0
# Processed by: cddbd v1.5.1PL0 Copyright (c) Steve Scherf et al.
# Submitted via: CDex 1.51
#
DISCID=5b0f9c07
DTITLE=Yves Brouqui Quartet - Live At Smalls
DYEAR=2002
DGENRE=Jazz
TTITLE0=Daahoud
TTITLE1=Somewhere In The Night
TTITLE2=Delilah
TTITLE3=Brook's Idea
TTITLE4=(I Don't Stand) A Ghost Of A Chance (With You)
TTITLE5=Super Jet
TTITLE6=Minor Mishap
EXTD=YEAR: 2002
EXTT0=
EXTT1=
EXTT2=
EXTT3=
EXTT4=
EXTT5=
EXTT6=
PLAYORDER=
